<svg id="Calque_1" data-name="Calque 1" xmlns="http://www.w3.org/2000/svg" viewBox="0 0 32 32"><defs><style>.cls-1{fill:#4b7bec;}.cls-2{font-size:38px;font-family:HemiHeadRg-BoldItalic, Hemi Head;font-weight:700;font-style:italic;}.cls-2,.cls-3{fill:#fff;}</style></defs><title>icon</title><rect class="cls-1" width="32" height="32"/><text class="cls-2" transform="translate(2.33 27.87)">t</text><path class="cls-3" d="M17.3,17.94l-.4-1.82L17,16l1.81-.2.13,0,1.63,2.67-.13.06-3-.48Zm3.07,2.22-1.87,2.22-.16,0L16.62,22l-.05-.2L17,20l.2-.08,3.14,0Zm1.24.66,1.05,2.63v.16l-1.27,1.33h-.1L20,23.66v-.19l1.48-2.66Zm.12-2.91L20.59,15l0-.19,1.23-1.24h.19L23.29,15v.19l-1.46,2.76ZM22.9,20l3,.48.15.11.52,1.86-.07.09-2,.2-.12-.1L22.8,20.12Zm1.87-3.73.2-.08,1.93.48.05.2-.74,1.62-.17.15-3,0,0-.16Z"/></svg>